<?xml version="1.0" encoding="UTF-8" standalone="no"?><svg xmlns="http://www.w3.org/2000/svg" xmlns:xlink="http://www.w3.org/1999/xlink" contentScriptType="application/ecmascript" contentStyleType="text/css" height="332px" preserveAspectRatio="none" style="width:808px;height:332px;" version="1.1" viewBox="0 0 808 332" width="808px" zoomAndPan="magnify"><defs><filter height="300%" id="f1gmii3h2q4pz9" width="300%" x="-1" y="-1"><feGaussianBlur result="blurOut" stdDeviation="2.0"/><feColorMatrix in="blurOut" result="blurOut2" type="matrix" values="0 0 0 0 0 0 0 0 0 0 0 0 0 0 0 0 0 0 .4 0"/><feOffset dx="4.0" dy="4.0" in="blurOut2" result="blurOut3"/><feBlend in="SourceGraphic" in2="blurOut3" mode="normal"/></filter></defs><g><!--MD5=[a4af21cceb2e0da825c4ec58f955929e]
class BankAgency1--><rect codeLine="9" fill="#F0F8FF" filter="url(#f1gmii3h2q4pz9)" height="125.7305" id="BankAgency1" rx="5" ry="5" style="stroke: #2F4F4F; stroke-width: 1.5;" width="239" x="88" y="7"/><ellipse cx="167.75" cy="23" fill="#ADD1B2" rx="11" ry="11" style="stroke: #2F4F4F; stroke-width: 1.0;"/><path d="M170.2231,29.1431 Q169.6421,29.4419 169.0029,29.5913 Q168.3638,29.7407 167.6582,29.7407 Q165.1514,29.7407 163.8315,28.0889 Q162.5117,26.437 162.5117,23.3159 Q162.5117,20.1865 163.8315,18.5347 Q165.1514,16.8828 167.6582,16.8828 Q168.3638,16.8828 169.0112,17.0322 Q169.6587,17.1816 170.2231,17.4805 L170.2231,20.2031 Q169.5923,19.6221 168.9988,19.3523 Q168.4053,19.0825 167.7744,19.0825 Q166.4297,19.0825 165.7449,20.1492 Q165.0601,21.2158 165.0601,23.3159 Q165.0601,25.4077 165.7449,26.4744 Q166.4297,27.541 167.7744,27.541 Q168.4053,27.541 168.9988,27.2712 Q169.5923,27.0015 170.2231,26.4204 Z "/><text fill="#000000" font-family="TrebuchetMS" font-size="12" lengthAdjust="spacingAndGlyphs" textLength="71" x="188.25" y="27.3008">BankAgency1</text><line style="stroke: #2F4F4F; stroke-width: 1.5;" x1="89" x2="326" y1="39" y2="39"/><rect fill="none" height="6" style="stroke: #C82930; stroke-width: 1.0;" width="6" x="96" y="47"/><text fill="#000000" font-family="sans-serif" font-size="11" lengthAdjust="spacingAndGlyphs" textLength="64" x="108" y="53.6348">String name</text><rect fill="none" height="6" style="stroke: #C82930; stroke-width: 1.0;" width="6" x="96" y="59.9551"/><text fill="#000000" font-family="sans-serif" font-size="11" lengthAdjust="spacingAndGlyphs" textLength="51" x="108" y="66.5898">String loc</text><line style="stroke: #2F4F4F; stroke-width: 1.5;" x1="89" x2="326" y1="72.9102" y2="72.9102"/><ellipse cx="99" cy="83.9102" fill="#84BE84" rx="3" ry="3" style="stroke: #038048; stroke-width: 1.0;"/><text fill="#000000" font-family="sans-serif" font-size="11" lengthAdjust="spacingAndGlyphs" textLength="95" x="108" y="87.5449">String getOwner()</text><ellipse cx="99" cy="96.8652" fill="#84BE84" rx="3" ry="3" style="stroke: #038048; stroke-width: 1.0;"/><text fill="#000000" font-family="sans-serif" font-size="11" lengthAdjust="spacingAndGlyphs" textLength="108" x="108" y="100.5">int getNbAccounts()</text><ellipse cx="99" cy="109.8203" fill="#84BE84" rx="3" ry="3" style="stroke: #038048; stroke-width: 1.0;"/><text fill="#000000" font-family="sans-serif" font-size="11" lengthAdjust="spacingAndGlyphs" textLength="17" x="108" y="113.4551">...()</text><ellipse cx="99" cy="122.7754" fill="#84BE84" rx="3" ry="3" style="stroke: #038048; stroke-width: 1.0;"/><text fill="#000000" font-family="sans-serif" font-size="11" lengthAdjust="spacingAndGlyphs" textLength="213" x="108" y="126.4102">void addAccount(Account newAccount)</text><!--MD5=[f9a29335b499db729be669fd1bd54958]
class Account--><rect codeLine="18" fill="#F0F8FF" filter="url(#f1gmii3h2q4pz9)" height="32" id="Account" rx="5" ry="5" style="stroke: #2F4F4F; stroke-width: 1.5;" width="76" x="362.5" y="54"/><ellipse cx="377.5" cy="70" fill="#ADD1B2" rx="11" ry="11" style="stroke: #2F4F4F; stroke-width: 1.0;"/><path d="M379.9731,76.1431 Q379.3921,76.4419 378.7529,76.5913 Q378.1138,76.7407 377.4082,76.7407 Q374.9014,76.7407 373.5815,75.0889 Q372.2617,73.437 372.2617,70.3159 Q372.2617,67.1865 373.5815,65.5347 Q374.9014,63.8828 377.4082,63.8828 Q378.1138,63.8828 378.7612,64.0322 Q379.4087,64.1816 379.9731,64.4805 L379.9731,67.2031 Q379.3423,66.6221 378.7488,66.3523 Q378.1553,66.0825 377.5244,66.0825 Q376.1797,66.0825 375.4949,67.1492 Q374.8101,68.2158 374.8101,70.3159 Q374.8101,72.4077 375.4949,73.4744 Q376.1797,74.541 377.5244,74.541 Q378.1553,74.541 378.7488,74.2712 Q379.3423,74.0015 379.9731,73.4204 Z "/><text fill="#000000" font-family="TrebuchetMS" font-size="12" lengthAdjust="spacingAndGlyphs" textLength="44" x="391.5" y="74.3008">Account</text><!--MD5=[57066ed3435304f041e70c05ac4bde22]
class BankAgency2--><rect codeLine="21" fill="#F0F8FF" filter="url(#f1gmii3h2q4pz9)" height="125.7305" id="BankAgency2" rx="5" ry="5" style="stroke: #2F4F4F; stroke-width: 1.5;" width="243" x="474" y="7"/><ellipse cx="555.75" cy="23" fill="#ADD1B2" rx="11" ry="11" style="stroke: #2F4F4F; stroke-width: 1.0;"/><path d="M558.2231,29.1431 Q557.6421,29.4419 557.0029,29.5913 Q556.3638,29.7407 555.6582,29.7407 Q553.1514,29.7407 551.8315,28.0889 Q550.5117,26.437 550.5117,23.3159 Q550.5117,20.1865 551.8315,18.5347 Q553.1514,16.8828 555.6582,16.8828 Q556.3638,16.8828 557.0112,17.0322 Q557.6587,17.1816 558.2231,17.4805 L558.2231,20.2031 Q557.5923,19.6221 556.9988,19.3523 Q556.4053,19.0825 555.7744,19.0825 Q554.4297,19.0825 553.7449,20.1492 Q553.0601,21.2158 553.0601,23.3159 Q553.0601,25.4077 553.7449,26.4744 Q554.4297,27.541 555.7744,27.541 Q556.4053,27.541 556.9988,27.2712 Q557.5923,27.0015 558.2231,26.4204 Z "/><text fill="#000000" font-family="TrebuchetMS" font-size="12" lengthAdjust="spacingAndGlyphs" textLength="71" x="576.25" y="27.3008">BankAgency2</text><line style="stroke: #2F4F4F; stroke-width: 1.5;" x1="475" x2="716" y1="39" y2="39"/><rect fill="none" height="6" style="stroke: #C82930; stroke-width: 1.0;" width="6" x="482" y="47"/><text fill="#000000" font-family="sans-serif" font-size="11" lengthAdjust="spacingAndGlyphs" textLength="64" x="494" y="53.6348">String name</text><rect fill="none" height="6" style="stroke: #C82930; stroke-width: 1.0;" width="6" x="482" y="59.9551"/><text fill="#000000" font-family="sans-serif" font-size="11" lengthAdjust="spacingAndGlyphs" textLength="51" x="494" y="66.5898">String loc</text><line style="stroke: #2F4F4F; stroke-width: 1.5;" x1="475" x2="716" y1="72.9102" y2="72.9102"/><ellipse cx="485" cy="83.9102" fill="#84BE84" rx="3" ry="3" style="stroke: #038048; stroke-width: 1.0;"/><text fill="#000000" font-family="sans-serif" font-size="11" lengthAdjust="spacingAndGlyphs" textLength="95" x="494" y="87.5449">String getOwner()</text><ellipse cx="485" cy="96.8652" fill="#84BE84" rx="3" ry="3" style="stroke: #038048; stroke-width: 1.0;"/><text fill="#000000" font-family="sans-serif" font-size="11" lengthAdjust="spacingAndGlyphs" textLength="108" x="494" y="100.5">int getNbAccounts()</text><ellipse cx="485" cy="109.8203" fill="#84BE84" rx="3" ry="3" style="stroke: #038048; stroke-width: 1.0;"/><text fill="#000000" font-family="sans-serif" font-size="11" lengthAdjust="spacingAndGlyphs" textLength="17" x="494" y="113.4551">...()</text><ellipse cx="485" cy="122.7754" fill="#84BE84" rx="3" ry="3" style="stroke: #038048; stroke-width: 1.0;"/><text fill="#000000" font-family="sans-serif" font-size="11" lengthAdjust="spacingAndGlyphs" textLength="217" x="494" y="126.4102">void addAccount() {... new Account(...)...}</text><!--MD5=[3fb36344511ac5b78310d02666154eeb]
class BankAgency3--><rect codeLine="30" fill="#F0F8FF" filter="url(#f1gmii3h2q4pz9)" height="125.7305" id="BankAgency3" rx="5" ry="5" style="stroke: #2F4F4F; stroke-width: 1.5;" width="239" x="7" y="193"/><ellipse cx="86.75" cy="209" fill="#ADD1B2" rx="11" ry="11" style="stroke: #2F4F4F; stroke-width: 1.0;"/><path d="M89.2231,215.1431 Q88.6421,215.4419 88.0029,215.5913 Q87.3638,215.7407 86.6582,215.7407 Q84.1514,215.7407 82.8315,214.0889 Q81.5117,212.437 81.5117,209.3159 Q81.5117,206.1865 82.8315,204.5347 Q84.1514,202.8828 86.6582,202.8828 Q87.3638,202.8828 88.0112,203.0322 Q88.6587,203.1816 89.2231,203.4805 L89.2231,206.2031 Q88.5923,205.6221 87.9988,205.3523 Q87.4053,205.0825 86.7744,205.0825 Q85.4297,205.0825 84.7449,206.1492 Q84.0601,207.2158 84.0601,209.3159 Q84.0601,211.4077 84.7449,212.4744 Q85.4297,213.541 86.7744,213.541 Q87.4053,213.541 87.9988,213.2712 Q88.5923,213.0015 89.2231,212.4204 Z "/><text fill="#000000" font-family="TrebuchetMS" font-size="12" lengthAdjust="spacingAndGlyphs" textLength="71" x="107.25" y="213.3008">BankAgency3</text><line style="stroke: #2F4F4F; stroke-width: 1.5;" x1="8" x2="245" y1="225" y2="225"/><rect fill="none" height="6" style="stroke: #C82930; stroke-width: 1.0;" width="6" x="15" y="233"/><text fill="#000000" font-family="sans-serif" font-size="11" lengthAdjust="spacingAndGlyphs" textLength="64" x="27" y="239.6348">String name</text><rect fill="none" height="6" style="stroke: #C82930; stroke-width: 1.0;" width="6" x="15" y="245.9551"/><text fill="#000000" font-family="sans-serif" font-size="11" lengthAdjust="spacingAndGlyphs" textLength="51" x="27" y="252.5898">String loc</text><line style="stroke: #2F4F4F; stroke-width: 1.5;" x1="8" x2="245" y1="258.9102" y2="258.9102"/><ellipse cx="18" cy="269.9102" fill="#84BE84" rx="3" ry="3" style="stroke: #038048; stroke-width: 1.0;"/><text fill="#000000" font-family="sans-serif" font-size="11" lengthAdjust="spacingAndGlyphs" textLength="95" x="27" y="273.5449">String getOwner()</text><ellipse cx="18" cy="282.8652" fill="#84BE84" rx="3" ry="3" style="stroke: #038048; stroke-width: 1.0;"/><text fill="#000000" font-family="sans-serif" font-size="11" lengthAdjust="spacingAndGlyphs" textLength="108" x="27" y="286.5">int getNbAccounts()</text><ellipse cx="18" cy="295.8203" fill="#84BE84" rx="3" ry="3" style="stroke: #038048; stroke-width: 1.0;"/><text fill="#000000" font-family="sans-serif" font-size="11" lengthAdjust="spacingAndGlyphs" textLength="17" x="27" y="299.4551">...()</text><ellipse cx="18" cy="308.7754" fill="#84BE84" rx="3" ry="3" style="stroke: #038048; stroke-width: 1.0;"/><text fill="#000000" font-family="sans-serif" font-size="11" lengthAdjust="spacingAndGlyphs" textLength="213" x="27" y="312.4102">void addAccount(Account newAccount)</text><!--MD5=[69e6df67dbae7599d1d21183e6b825ab]
class BankAgency4--><rect codeLine="39" fill="#F0F8FF" filter="url(#f1gmii3h2q4pz9)" height="112.7754" id="BankAgency4" rx="5" ry="5" style="stroke: #2F4F4F; stroke-width: 1.5;" width="239" x="281" y="199.5"/><ellipse cx="360.75" cy="215.5" fill="#ADD1B2" rx="11" ry="11" style="stroke: #2F4F4F; stroke-width: 1.0;"/><path d="M363.2231,221.6431 Q362.6421,221.9419 362.0029,222.0913 Q361.3638,222.2407 360.6582,222.2407 Q358.1514,222.2407 356.8315,220.5889 Q355.5117,218.937 355.5117,215.8159 Q355.5117,212.6865 356.8315,211.0347 Q358.1514,209.3828 360.6582,209.3828 Q361.3638,209.3828 362.0112,209.5322 Q362.6587,209.6816 363.2231,209.9805 L363.2231,212.7031 Q362.5923,212.1221 361.9988,211.8523 Q361.4053,211.5825 360.7744,211.5825 Q359.4297,211.5825 358.7449,212.6492 Q358.0601,213.7158 358.0601,215.8159 Q358.0601,217.9077 358.7449,218.9744 Q359.4297,220.041 360.7744,220.041 Q361.4053,220.041 361.9988,219.7712 Q362.5923,219.5015 363.2231,218.9204 Z "/><text fill="#000000" font-family="TrebuchetMS" font-size="12" lengthAdjust="spacingAndGlyphs" textLength="71" x="381.25" y="219.8008">BankAgency4</text><line style="stroke: #2F4F4F; stroke-width: 1.5;" x1="282" x2="519" y1="231.5" y2="231.5"/><rect fill="none" height="6" style="stroke: #C82930; stroke-width: 1.0;" width="6" x="289" y="239.5"/><text fill="#000000" font-family="sans-serif" font-size="11" lengthAdjust="spacingAndGlyphs" textLength="64" x="301" y="246.1348">String name</text><rect fill="none" height="6" style="stroke: #C82930; stroke-width: 1.0;" width="6" x="289" y="252.4551"/><text fill="#000000" font-family="sans-serif" font-size="11" lengthAdjust="spacingAndGlyphs" textLength="51" x="301" y="259.0898">String loc</text><line style="stroke: #2F4F4F; stroke-width: 1.5;" x1="282" x2="519" y1="265.4102" y2="265.4102"/><ellipse cx="292" cy="276.4102" fill="#84BE84" rx="3" ry="3" style="stroke: #038048; stroke-width: 1.0;"/><text fill="#000000" font-family="sans-serif" font-size="11" lengthAdjust="spacingAndGlyphs" textLength="95" x="301" y="280.0449">String getOwner()</text><ellipse cx="292" cy="289.3652" fill="#84BE84" rx="3" ry="3" style="stroke: #038048; stroke-width: 1.0;"/><text fill="#000000" font-family="sans-serif" font-size="11" lengthAdjust="spacingAndGlyphs" textLength="17" x="301" y="293">...()</text><ellipse cx="292" cy="302.3203" fill="#84BE84" rx="3" ry="3" style="stroke: #038048; stroke-width: 1.0;"/><text fill="#000000" font-family="sans-serif" font-size="11" lengthAdjust="spacingAndGlyphs" textLength="213" x="301" y="305.9551">void addAccount(Account newAccount)</text><!--MD5=[4819a4906f44b8c6053d449058870b64]
class BankAgency5--><rect codeLine="47" fill="#F0F8FF" filter="url(#f1gmii3h2q4pz9)" height="112.7754" id="BankAgency5" rx="5" ry="5" style="stroke: #2F4F4F; stroke-width: 1.5;" width="239" x="555" y="199.5"/><ellipse cx="634.75" cy="215.5" fill="#ADD1B2" rx="11" ry="11" style="stroke: #2F4F4F; stroke-width: 1.0;"/><path d="M637.2231,221.6431 Q636.6421,221.9419 636.0029,222.0913 Q635.3638,222.2407 634.6582,222.2407 Q632.1514,222.2407 630.8315,220.5889 Q629.5117,218.937 629.5117,215.8159 Q629.5117,212.6865 630.8315,211.0347 Q632.1514,209.3828 634.6582,209.3828 Q635.3638,209.3828 636.0112,209.5322 Q636.6587,209.6816 637.2231,209.9805 L637.2231,212.7031 Q636.5923,212.1221 635.9988,211.8523 Q635.4053,211.5825 634.7744,211.5825 Q633.4297,211.5825 632.7449,212.6492 Q632.0601,213.7158 632.0601,215.8159 Q632.0601,217.9077 632.7449,218.9744 Q633.4297,220.041 634.7744,220.041 Q635.4053,220.041 635.9988,219.7712 Q636.5923,219.5015 637.2231,218.9204 Z "/><text fill="#000000" font-family="TrebuchetMS" font-size="12" lengthAdjust="spacingAndGlyphs" textLength="71" x="655.25" y="219.8008">BankAgency5</text><line style="stroke: #2F4F4F; stroke-width: 1.5;" x1="556" x2="793" y1="231.5" y2="231.5"/><rect fill="none" height="6" style="stroke: #C82930; stroke-width: 1.0;" width="6" x="563" y="239.5"/><text fill="#000000" font-family="sans-serif" font-size="11" lengthAdjust="spacingAndGlyphs" textLength="64" x="575" y="246.1348">String name</text><rect fill="none" height="6" style="stroke: #C82930; stroke-width: 1.0;" width="6" x="563" y="252.4551"/><text fill="#000000" font-family="sans-serif" font-size="11" lengthAdjust="spacingAndGlyphs" textLength="51" x="575" y="259.0898">String loc</text><line style="stroke: #2F4F4F; stroke-width: 1.5;" x1="556" x2="793" y1="265.4102" y2="265.4102"/><ellipse cx="566" cy="276.4102" fill="#84BE84" rx="3" ry="3" style="stroke: #038048; stroke-width: 1.0;"/><text fill="#000000" font-family="sans-serif" font-size="11" lengthAdjust="spacingAndGlyphs" textLength="95" x="575" y="280.0449">String getOwner()</text><ellipse cx="566" cy="289.3652" fill="#84BE84" rx="3" ry="3" style="stroke: #038048; stroke-width: 1.0;"/><text fill="#000000" font-family="sans-serif" font-size="11" lengthAdjust="spacingAndGlyphs" textLength="17" x="575" y="293">...()</text><ellipse cx="566" cy="302.3203" fill="#84BE84" rx="3" ry="3" style="stroke: #038048; stroke-width: 1.0;"/><text fill="#000000" font-family="sans-serif" font-size="11" lengthAdjust="spacingAndGlyphs" textLength="213" x="575" y="305.9551">void addAccount(Account newAccount)</text><!--MD5=[dbcd34bfc013d7aa1b9aafcd2111b1be]
link BankAgency1 to Account--><path codeLine="58" d="M339.37,70 C339.37,70 346.11,70 348.95,70 " fill="none" id="BankAgency1-Account" style="stroke: #000000; stroke-width: 1.0;"/><polygon fill="#000000" points="362.22,70,353.22,66,357.22,70,353.22,74,362.22,70" style="stroke: #000000; stroke-width: 1.0;"/><line style="stroke: #000000; stroke-width: 1.0;" x1="357.22" x2="349.22" y1="70" y2="70"/><polygon fill="#FFFFFF" points="327.37,70,333.37,74,339.37,70,333.37,66,327.37,70" style="stroke: #000000; stroke-width: 1.0;"/><text fill="#000000" font-family="sans-serif" font-size="13" lengthAdjust="spacingAndGlyphs" textLength="6" x="348.609" y="66.2142">*</text><!--MD5=[61f97aea757a27b9dc5246fa1365b699]
link Account to BankAgency2--><path codeLine="59" d="M451.8,70 C454.79,70 461.83,70 461.83,70 " fill="none" id="Account-BankAgency2" style="stroke: #000000; stroke-width: 1.0;"/><polygon fill="#000000" points="473.83,70,467.83,66,461.83,70,467.83,74,473.83,70" style="stroke: #000000; stroke-width: 1.0;"/><polygon fill="#000000" points="438.59,70,447.59,74,443.59,70,447.59,66,438.59,70" style="stroke: #000000; stroke-width: 1.0;"/><line style="stroke: #000000; stroke-width: 1.0;" x1="443.59" x2="451.59" y1="70" y2="70"/><text fill="#000000" font-family="sans-serif" font-size="13" lengthAdjust="spacingAndGlyphs" textLength="6" x="446.4228" y="66.1683">*</text><!--MD5=[9ecac58dbd7d231b803d9af1e04eecec]
link Account to BankAgency3--><path codeLine="60" d="M380.87,96.35 C370.8,108.34 357.87,122.34 344.5,133 C317.97,154.16 256.5536,191.3475 256.5536,191.3475 " fill="none" id="Account-BankAgency3" style="stroke: #000000; stroke-width: 1.0;"/><polygon fill="#FFFFFF" points="246.1,197.24,253.291,197.7783,256.5536,191.3475,249.3626,190.8092,246.1,197.24" style="stroke: #000000; stroke-width: 1.0;"/><polygon fill="#000000" points="389.23,86.05,380.4519,90.5159,386.0785,89.9317,386.6627,95.5584,389.23,86.05" style="stroke: #000000; stroke-width: 1.0;"/><line style="stroke: #000000; stroke-width: 1.0;" x1="386.0785" x2="381.035" y1="89.9317" y2="96.14"/><text fill="#000000" font-family="sans-serif" font-size="13" lengthAdjust="spacingAndGlyphs" textLength="6" x="378.5031" y="106.4707">*</text><!--MD5=[605872b64d07171b944bc02dbadeda12]
reverse link Account to BankAgency4--><path codeLine="61" d="M400.5,91.25 C400.5,117.06 400.5,162.69 400.5,199.25 " fill="none" id="Account-backto-BankAgency4" style="stroke: #000000; stroke-width: 1.0; stroke-dasharray: 7.0,7.0;"/><polygon fill="#000000" points="400.5,86.06,396.5,95.06,400.5,91.06,404.5,95.06,400.5,86.06" style="stroke: #000000; stroke-width: 1.0;"/><!--MD5=[97a6ec45997fc1c96debecf8a242aacc]
reverse link Account to BankAgency5--><path codeLine="62" d="M414.89,89.98 C425.46,103.09 440.67,120.38 456.5,133 C487.61,157.81 524.42,180.51 558.86,199.42 " fill="none" id="Account-backto-BankAgency5" style="stroke: #000000; stroke-width: 1.0;"/><polygon fill="#000000" points="411.77,86.05,414.2433,95.5833,414.883,89.9627,420.5036,90.6024,411.77,86.05" style="stroke: #000000; stroke-width: 1.0;"/><text fill="#000000" font-family="sans-serif" font-size="13" lengthAdjust="spacingAndGlyphs" textLength="8" x="406.1782" y="106.4707">1</text><!--MD5=[cf00d9b25e486b7f3057dc61e3f7a6d3]
@startuml
'- - - - - - - - - - - - - - - - - - - - - - - - - - - - - - - - - - -
' UML concepts illustrated
' JMB 2020
'- - - - - - - - - - - - - - - - - - - - - - - - - - - - - - - - - - -

!include config.cfg
'skinparam classAttributeIconSize 0

class BankAgency1 {
	-String name
	-String loc
	+String getOwner()
	+int getNbAccounts()
	+...()
	+void addAccount(Account newAccount)
}

class Account {
}

class BankAgency2 {
	-String name
	-String loc
	+String getOwner()
	+int getNbAccounts()
	+...()
	+void addAccount() {... new Account(...)...}
}

class BankAgency3 {
	-String name
	-String loc
	+String getOwner()
	+int getNbAccounts()
	+...()
	+void addAccount(Account newAccount)
}

class BankAgency4 {
	-String name
	-String loc
	+String getOwner()
	+...()
	+void addAccount(Account newAccount)
}

class BankAgency5 {
	-String name
	-String loc
	+String getOwner()
	+...()
	+void addAccount(Account newAccount)
}


' Structural relationships

BankAgency1 o-> "*" Account
Account "*" <-* BankAgency2
Account "*" <- -o BankAgency3
Account <.. BankAgency4
Account "1" <- - BankAgency5

@enduml

@startuml


hide empty members
hide empty methods


skinparam package {
	BackgroundColor empty
	BorderColor DarkSlateGray
	ArrowColor Black
	FontColor Black
	FontSize 12
	FontName TrebuchetMS
}
skinparam roundcorner 10

skinparam class {
	BackgroundColor AliceBlue
	BorderColor DarkSlateGray
	ArrowColor Black
	FontColor Black
	FontSize 12
	FontName TrebuchetMS
}
skinparam arrow {
    MessageAlign center
}

class BankAgency1 {
	-String name
	-String loc
	+String getOwner()
	+int getNbAccounts()
	+...()
	+void addAccount(Account newAccount)
}

class Account {
}

class BankAgency2 {
	-String name
	-String loc
	+String getOwner()
	+int getNbAccounts()
	+...()
	+void addAccount() {... new Account(...)...}
}

class BankAgency3 {
	-String name
	-String loc
	+String getOwner()
	+int getNbAccounts()
	+...()
	+void addAccount(Account newAccount)
}

class BankAgency4 {
	-String name
	-String loc
	+String getOwner()
	+...()
	+void addAccount(Account newAccount)
}

class BankAgency5 {
	-String name
	-String loc
	+String getOwner()
	+...()
	+void addAccount(Account newAccount)
}



BankAgency1 o-> "*" Account
Account "*" <-* BankAgency2
Account "*" <- -o BankAgency3
Account <.. BankAgency4
Account "1" <- - BankAgency5

@enduml

PlantUML version 1.2020.18(Wed Sep 30 21:40:44 CEST 2020)
(GPL source distribution)
Java Runtime: OpenJDK Runtime Environment
JVM: OpenJDK 64-Bit Server VM
Default Encoding: UTF-8
Language: fr
Country: FR
--></g></svg>