<?xml version="1.0" encoding="UTF-8" standalone="no"?><svg xmlns="http://www.w3.org/2000/svg" xmlns:xlink="http://www.w3.org/1999/xlink" contentScriptType="application/ecmascript" contentStyleType="text/css" height="375px" preserveAspectRatio="none" style="width:808px;height:375px;" version="1.1" viewBox="0 0 808 375" width="808px" zoomAndPan="magnify"><defs><filter height="300%" id="f1e2w6vfauvdu6" width="300%" x="-1" y="-1"><feGaussianBlur result="blurOut" stdDeviation="2.0"/><feColorMatrix in="blurOut" result="blurOut2" type="matrix" values="0 0 0 0 0 0 0 0 0 0 0 0 0 0 0 0 0 0 .4 0"/><feOffset dx="4.0" dy="4.0" in="blurOut2" result="blurOut3"/><feBlend in="SourceGraphic" in2="blurOut3" mode="normal"/></filter></defs><g><!--MD5=[a4af21cceb2e0da825c4ec58f955929e]
class BankAgency1--><rect codeLine="9" fill="#F0F8FF" filter="url(#f1e2w6vfauvdu6)" height="138.6855" id="BankAgency1" rx="5" ry="5" style="stroke: #2F4F4F; stroke-width: 1.5;" width="239" x="7" y="7"/><ellipse cx="84.25" cy="23" fill="#ADD1B2" rx="11" ry="11" style="stroke: #2F4F4F; stroke-width: 1.0;"/><path d="M86.7231,29.1431 Q86.1421,29.4419 85.5029,29.5913 Q84.8638,29.7407 84.1582,29.7407 Q81.6514,29.7407 80.3315,28.0889 Q79.0117,26.437 79.0117,23.3159 Q79.0117,20.1865 80.3315,18.5347 Q81.6514,16.8828 84.1582,16.8828 Q84.8638,16.8828 85.5112,17.0322 Q86.1587,17.1816 86.7231,17.4805 L86.7231,20.2031 Q86.0923,19.6221 85.4988,19.3523 Q84.9053,19.0825 84.2744,19.0825 Q82.9297,19.0825 82.2449,20.1492 Q81.5601,21.2158 81.5601,23.3159 Q81.5601,25.4077 82.2449,26.4744 Q82.9297,27.541 84.2744,27.541 Q84.9053,27.541 85.4988,27.2712 Q86.0923,27.0015 86.7231,26.4204 Z "/><text fill="#000000" font-family="Helvetica" font-size="12" lengthAdjust="spacingAndGlyphs" textLength="76" x="104.75" y="26.2402">BankAgency1</text><line style="stroke: #2F4F4F; stroke-width: 1.5;" x1="8" x2="245" y1="39" y2="39"/><rect fill="none" height="6" style="stroke: #C82930; stroke-width: 1.0;" width="6" x="15" y="47"/><text fill="#000000" font-family="sans-serif" font-size="11" lengthAdjust="spacingAndGlyphs" textLength="64" x="27" y="53.6348">String name</text><rect fill="none" height="6" style="stroke: #C82930; stroke-width: 1.0;" width="6" x="15" y="59.9551"/><text fill="#000000" font-family="sans-serif" font-size="11" lengthAdjust="spacingAndGlyphs" textLength="51" x="27" y="66.5898">String loc</text><rect fill="none" height="6" style="stroke: #C82930; stroke-width: 1.0;" width="6" x="15" y="72.9102"/><text fill="#000000" font-family="sans-serif" font-size="11" lengthAdjust="spacingAndGlyphs" textLength="164" x="27" y="79.5449">ArrayList&lt;Account&gt; accounts</text><line style="stroke: #2F4F4F; stroke-width: 1.5;" x1="8" x2="245" y1="85.8652" y2="85.8652"/><ellipse cx="18" cy="96.8652" fill="#84BE84" rx="3" ry="3" style="stroke: #038048; stroke-width: 1.0;"/><text fill="#000000" font-family="sans-serif" font-size="11" lengthAdjust="spacingAndGlyphs" textLength="95" x="27" y="100.5">String getOwner()</text><ellipse cx="18" cy="109.8203" fill="#84BE84" rx="3" ry="3" style="stroke: #038048; stroke-width: 1.0;"/><text fill="#000000" font-family="sans-serif" font-size="11" lengthAdjust="spacingAndGlyphs" textLength="108" x="27" y="113.4551">int getNbAccounts()</text><ellipse cx="18" cy="122.7754" fill="#84BE84" rx="3" ry="3" style="stroke: #038048; stroke-width: 1.0;"/><text fill="#000000" font-family="sans-serif" font-size="11" lengthAdjust="spacingAndGlyphs" textLength="17" x="27" y="126.4102">...()</text><ellipse cx="18" cy="135.7305" fill="#84BE84" rx="3" ry="3" style="stroke: #038048; stroke-width: 1.0;"/><text fill="#000000" font-family="sans-serif" font-size="11" lengthAdjust="spacingAndGlyphs" textLength="213" x="27" y="139.3652">void addAccount(Account newAccount)</text><!--MD5=[f9a29335b499db729be669fd1bd54958]
class Account--><rect codeLine="19" fill="#F0F8FF" filter="url(#f1e2w6vfauvdu6)" height="32" id="Account" rx="5" ry="5" style="stroke: #2F4F4F; stroke-width: 1.5;" width="76" x="281.5" y="60.5"/><ellipse cx="296.5" cy="76.5" fill="#ADD1B2" rx="11" ry="11" style="stroke: #2F4F4F; stroke-width: 1.0;"/><path d="M298.9731,82.6431 Q298.3921,82.9419 297.7529,83.0913 Q297.1138,83.2407 296.4082,83.2407 Q293.9014,83.2407 292.5815,81.5889 Q291.2617,79.937 291.2617,76.8159 Q291.2617,73.6865 292.5815,72.0347 Q293.9014,70.3828 296.4082,70.3828 Q297.1138,70.3828 297.7612,70.5322 Q298.4087,70.6816 298.9731,70.9805 L298.9731,73.7031 Q298.3423,73.1221 297.7488,72.8523 Q297.1553,72.5825 296.5244,72.5825 Q295.1797,72.5825 294.4949,73.6492 Q293.8101,74.7158 293.8101,76.8159 Q293.8101,78.9077 294.4949,79.9744 Q295.1797,81.041 296.5244,81.041 Q297.1553,81.041 297.7488,80.7712 Q298.3423,80.5015 298.9731,79.9204 Z "/><text fill="#000000" font-family="Helvetica" font-size="12" lengthAdjust="spacingAndGlyphs" textLength="44" x="310.5" y="79.7402">Account</text><!--MD5=[57066ed3435304f041e70c05ac4bde22]
class BankAgency2--><rect codeLine="22" fill="#F0F8FF" filter="url(#f1e2w6vfauvdu6)" height="138.6855" id="BankAgency2" rx="5" ry="5" style="stroke: #2F4F4F; stroke-width: 1.5;" width="243" x="393" y="7"/><ellipse cx="472.25" cy="23" fill="#ADD1B2" rx="11" ry="11" style="stroke: #2F4F4F; stroke-width: 1.0;"/><path d="M474.7231,29.1431 Q474.1421,29.4419 473.5029,29.5913 Q472.8638,29.7407 472.1582,29.7407 Q469.6514,29.7407 468.3315,28.0889 Q467.0117,26.437 467.0117,23.3159 Q467.0117,20.1865 468.3315,18.5347 Q469.6514,16.8828 472.1582,16.8828 Q472.8638,16.8828 473.5112,17.0322 Q474.1587,17.1816 474.7231,17.4805 L474.7231,20.2031 Q474.0923,19.6221 473.4988,19.3523 Q472.9053,19.0825 472.2744,19.0825 Q470.9297,19.0825 470.2449,20.1492 Q469.5601,21.2158 469.5601,23.3159 Q469.5601,25.4077 470.2449,26.4744 Q470.9297,27.541 472.2744,27.541 Q472.9053,27.541 473.4988,27.2712 Q474.0923,27.0015 474.7231,26.4204 Z "/><text fill="#000000" font-family="Helvetica" font-size="12" lengthAdjust="spacingAndGlyphs" textLength="76" x="492.75" y="26.2402">BankAgency2</text><line style="stroke: #2F4F4F; stroke-width: 1.5;" x1="394" x2="635" y1="39" y2="39"/><rect fill="none" height="6" style="stroke: #C82930; stroke-width: 1.0;" width="6" x="401" y="47"/><text fill="#000000" font-family="sans-serif" font-size="11" lengthAdjust="spacingAndGlyphs" textLength="64" x="413" y="53.6348">String name</text><rect fill="none" height="6" style="stroke: #C82930; stroke-width: 1.0;" width="6" x="401" y="59.9551"/><text fill="#000000" font-family="sans-serif" font-size="11" lengthAdjust="spacingAndGlyphs" textLength="51" x="413" y="66.5898">String loc</text><rect fill="none" height="6" style="stroke: #C82930; stroke-width: 1.0;" width="6" x="401" y="72.9102"/><text fill="#000000" font-family="sans-serif" font-size="11" lengthAdjust="spacingAndGlyphs" textLength="164" x="413" y="79.5449">ArrayList&lt;Account&gt; accounts</text><line style="stroke: #2F4F4F; stroke-width: 1.5;" x1="394" x2="635" y1="85.8652" y2="85.8652"/><ellipse cx="404" cy="96.8652" fill="#84BE84" rx="3" ry="3" style="stroke: #038048; stroke-width: 1.0;"/><text fill="#000000" font-family="sans-serif" font-size="11" lengthAdjust="spacingAndGlyphs" textLength="95" x="413" y="100.5">String getOwner()</text><ellipse cx="404" cy="109.8203" fill="#84BE84" rx="3" ry="3" style="stroke: #038048; stroke-width: 1.0;"/><text fill="#000000" font-family="sans-serif" font-size="11" lengthAdjust="spacingAndGlyphs" textLength="108" x="413" y="113.4551">int getNbAccounts()</text><ellipse cx="404" cy="122.7754" fill="#84BE84" rx="3" ry="3" style="stroke: #038048; stroke-width: 1.0;"/><text fill="#000000" font-family="sans-serif" font-size="11" lengthAdjust="spacingAndGlyphs" textLength="17" x="413" y="126.4102">...()</text><ellipse cx="404" cy="135.7305" fill="#84BE84" rx="3" ry="3" style="stroke: #038048; stroke-width: 1.0;"/><text fill="#000000" font-family="sans-serif" font-size="11" lengthAdjust="spacingAndGlyphs" textLength="217" x="413" y="139.3652">void addAccount() {... new Account(...)...}</text><!--MD5=[3fb36344511ac5b78310d02666154eeb]
class BankAgency3--><rect codeLine="32" fill="#F0F8FF" filter="url(#f1e2w6vfauvdu6)" height="138.6855" id="BankAgency3" rx="5" ry="5" style="stroke: #2F4F4F; stroke-width: 1.5;" width="239" x="7" y="206"/><ellipse cx="84.25" cy="222" fill="#ADD1B2" rx="11" ry="11" style="stroke: #2F4F4F; stroke-width: 1.0;"/><path d="M86.7231,228.1431 Q86.1421,228.4419 85.5029,228.5913 Q84.8638,228.7407 84.1582,228.7407 Q81.6514,228.7407 80.3315,227.0889 Q79.0117,225.437 79.0117,222.3159 Q79.0117,219.1865 80.3315,217.5347 Q81.6514,215.8828 84.1582,215.8828 Q84.8638,215.8828 85.5112,216.0322 Q86.1587,216.1816 86.7231,216.4805 L86.7231,219.2031 Q86.0923,218.6221 85.4988,218.3523 Q84.9053,218.0825 84.2744,218.0825 Q82.9297,218.0825 82.2449,219.1492 Q81.5601,220.2158 81.5601,222.3159 Q81.5601,224.4077 82.2449,225.4744 Q82.9297,226.541 84.2744,226.541 Q84.9053,226.541 85.4988,226.2712 Q86.0923,226.0015 86.7231,225.4204 Z "/><text fill="#000000" font-family="Helvetica" font-size="12" lengthAdjust="spacingAndGlyphs" textLength="76" x="104.75" y="225.2402">BankAgency3</text><line style="stroke: #2F4F4F; stroke-width: 1.5;" x1="8" x2="245" y1="238" y2="238"/><rect fill="none" height="6" style="stroke: #C82930; stroke-width: 1.0;" width="6" x="15" y="246"/><text fill="#000000" font-family="sans-serif" font-size="11" lengthAdjust="spacingAndGlyphs" textLength="64" x="27" y="252.6348">String name</text><rect fill="none" height="6" style="stroke: #C82930; stroke-width: 1.0;" width="6" x="15" y="258.9551"/><text fill="#000000" font-family="sans-serif" font-size="11" lengthAdjust="spacingAndGlyphs" textLength="51" x="27" y="265.5898">String loc</text><ellipse cx="18" cy="274.9102" fill="none" rx="3" ry="3" style="stroke: #038048; stroke-width: 1.0;"/><text fill="#000000" font-family="sans-serif" font-size="11" lengthAdjust="spacingAndGlyphs" textLength="164" x="27" y="278.5449">ArrayList&lt;Account&gt; accounts</text><line style="stroke: #2F4F4F; stroke-width: 1.5;" x1="8" x2="245" y1="284.8652" y2="284.8652"/><ellipse cx="18" cy="295.8652" fill="#84BE84" rx="3" ry="3" style="stroke: #038048; stroke-width: 1.0;"/><text fill="#000000" font-family="sans-serif" font-size="11" lengthAdjust="spacingAndGlyphs" textLength="95" x="27" y="299.5">String getOwner()</text><ellipse cx="18" cy="308.8203" fill="#84BE84" rx="3" ry="3" style="stroke: #038048; stroke-width: 1.0;"/><text fill="#000000" font-family="sans-serif" font-size="11" lengthAdjust="spacingAndGlyphs" textLength="108" x="27" y="312.4551">int getNbAccounts()</text><ellipse cx="18" cy="321.7754" fill="#84BE84" rx="3" ry="3" style="stroke: #038048; stroke-width: 1.0;"/><text fill="#000000" font-family="sans-serif" font-size="11" lengthAdjust="spacingAndGlyphs" textLength="17" x="27" y="325.4102">...()</text><ellipse cx="18" cy="334.7305" fill="#84BE84" rx="3" ry="3" style="stroke: #038048; stroke-width: 1.0;"/><text fill="#000000" font-family="sans-serif" font-size="11" lengthAdjust="spacingAndGlyphs" textLength="213" x="27" y="338.3652">void addAccount(Account newAccount)</text><!--MD5=[69e6df67dbae7599d1d21183e6b825ab]
class BankAgency4--><rect codeLine="42" fill="#F0F8FF" filter="url(#f1e2w6vfauvdu6)" height="112.7754" id="BankAgency4" rx="5" ry="5" style="stroke: #2F4F4F; stroke-width: 1.5;" width="239" x="281" y="219"/><ellipse cx="358.25" cy="235" fill="#ADD1B2" rx="11" ry="11" style="stroke: #2F4F4F; stroke-width: 1.0;"/><path d="M360.7231,241.1431 Q360.1421,241.4419 359.5029,241.5913 Q358.8638,241.7407 358.1582,241.7407 Q355.6514,241.7407 354.3315,240.0889 Q353.0117,238.437 353.0117,235.3159 Q353.0117,232.1865 354.3315,230.5347 Q355.6514,228.8828 358.1582,228.8828 Q358.8638,228.8828 359.5112,229.0322 Q360.1587,229.1816 360.7231,229.4805 L360.7231,232.2031 Q360.0923,231.6221 359.4988,231.3523 Q358.9053,231.0825 358.2744,231.0825 Q356.9297,231.0825 356.2449,232.1492 Q355.5601,233.2158 355.5601,235.3159 Q355.5601,237.4077 356.2449,238.4744 Q356.9297,239.541 358.2744,239.541 Q358.9053,239.541 359.4988,239.2712 Q360.0923,239.0015 360.7231,238.4204 Z "/><text fill="#000000" font-family="Helvetica" font-size="12" lengthAdjust="spacingAndGlyphs" textLength="76" x="378.75" y="238.2402">BankAgency4</text><line style="stroke: #2F4F4F; stroke-width: 1.5;" x1="282" x2="519" y1="251" y2="251"/><rect fill="none" height="6" style="stroke: #C82930; stroke-width: 1.0;" width="6" x="289" y="259"/><text fill="#000000" font-family="sans-serif" font-size="11" lengthAdjust="spacingAndGlyphs" textLength="64" x="301" y="265.6348">String name</text><rect fill="none" height="6" style="stroke: #C82930; stroke-width: 1.0;" width="6" x="289" y="271.9551"/><text fill="#000000" font-family="sans-serif" font-size="11" lengthAdjust="spacingAndGlyphs" textLength="51" x="301" y="278.5898">String loc</text><line style="stroke: #2F4F4F; stroke-width: 1.5;" x1="282" x2="519" y1="284.9102" y2="284.9102"/><ellipse cx="292" cy="295.9102" fill="#84BE84" rx="3" ry="3" style="stroke: #038048; stroke-width: 1.0;"/><text fill="#000000" font-family="sans-serif" font-size="11" lengthAdjust="spacingAndGlyphs" textLength="95" x="301" y="299.5449">String getOwner()</text><ellipse cx="292" cy="308.8652" fill="#84BE84" rx="3" ry="3" style="stroke: #038048; stroke-width: 1.0;"/><text fill="#000000" font-family="sans-serif" font-size="11" lengthAdjust="spacingAndGlyphs" textLength="17" x="301" y="312.5">...()</text><ellipse cx="292" cy="321.8203" fill="#84BE84" rx="3" ry="3" style="stroke: #038048; stroke-width: 1.0;"/><text fill="#000000" font-family="sans-serif" font-size="11" lengthAdjust="spacingAndGlyphs" textLength="213" x="301" y="325.4551">void addAccount(Account newAccount)</text><!--MD5=[4819a4906f44b8c6053d449058870b64]
class BankAgency5--><rect codeLine="50" fill="#F0F8FF" filter="url(#f1e2w6vfauvdu6)" height="125.7305" id="BankAgency5" rx="5" ry="5" style="stroke: #2F4F4F; stroke-width: 1.5;" width="239" x="555" y="212.5"/><ellipse cx="632.25" cy="228.5" fill="#ADD1B2" rx="11" ry="11" style="stroke: #2F4F4F; stroke-width: 1.0;"/><path d="M634.7231,234.6431 Q634.1421,234.9419 633.5029,235.0913 Q632.8638,235.2407 632.1582,235.2407 Q629.6514,235.2407 628.3315,233.5889 Q627.0117,231.937 627.0117,228.8159 Q627.0117,225.6865 628.3315,224.0347 Q629.6514,222.3828 632.1582,222.3828 Q632.8638,222.3828 633.5112,222.5322 Q634.1587,222.6816 634.7231,222.9805 L634.7231,225.7031 Q634.0923,225.1221 633.4988,224.8523 Q632.9053,224.5825 632.2744,224.5825 Q630.9297,224.5825 630.2449,225.6492 Q629.5601,226.7158 629.5601,228.8159 Q629.5601,230.9077 630.2449,231.9744 Q630.9297,233.041 632.2744,233.041 Q632.9053,233.041 633.4988,232.7712 Q634.0923,232.5015 634.7231,231.9204 Z "/><text fill="#000000" font-family="Helvetica" font-size="12" lengthAdjust="spacingAndGlyphs" textLength="76" x="652.75" y="231.7402">BankAgency5</text><line style="stroke: #2F4F4F; stroke-width: 1.5;" x1="556" x2="793" y1="244.5" y2="244.5"/><rect fill="none" height="6" style="stroke: #C82930; stroke-width: 1.0;" width="6" x="563" y="252.5"/><text fill="#000000" font-family="sans-serif" font-size="11" lengthAdjust="spacingAndGlyphs" textLength="64" x="575" y="259.1348">String name</text><rect fill="none" height="6" style="stroke: #C82930; stroke-width: 1.0;" width="6" x="563" y="265.4551"/><text fill="#000000" font-family="sans-serif" font-size="11" lengthAdjust="spacingAndGlyphs" textLength="51" x="575" y="272.0898">String loc</text><rect fill="none" height="6" style="stroke: #C82930; stroke-width: 1.0;" width="6" x="563" y="278.4102"/><text fill="#000000" font-family="sans-serif" font-size="11" lengthAdjust="spacingAndGlyphs" textLength="93" x="575" y="285.0449">Account Account</text><line style="stroke: #2F4F4F; stroke-width: 1.5;" x1="556" x2="793" y1="291.3652" y2="291.3652"/><ellipse cx="566" cy="302.3652" fill="#84BE84" rx="3" ry="3" style="stroke: #038048; stroke-width: 1.0;"/><text fill="#000000" font-family="sans-serif" font-size="11" lengthAdjust="spacingAndGlyphs" textLength="95" x="575" y="306">String getOwner()</text><ellipse cx="566" cy="315.3203" fill="#84BE84" rx="3" ry="3" style="stroke: #038048; stroke-width: 1.0;"/><text fill="#000000" font-family="sans-serif" font-size="11" lengthAdjust="spacingAndGlyphs" textLength="17" x="575" y="318.9551">...()</text><ellipse cx="566" cy="328.2754" fill="#84BE84" rx="3" ry="3" style="stroke: #038048; stroke-width: 1.0;"/><text fill="#000000" font-family="sans-serif" font-size="11" lengthAdjust="spacingAndGlyphs" textLength="213" x="575" y="331.9102">void addAccount(Account newAccount)</text><!--MD5=[dbcd34bfc013d7aa1b9aafcd2111b1be]
link BankAgency1 to Account--><!--MD5=[61f97aea757a27b9dc5246fa1365b699]
link Account to BankAgency2--><!--MD5=[9b19d2013cbc2696a7f2561fd956dd17]
link BankAgency1 to BankAgency3--><!--MD5=[06e284429ce8520408930f7e53f3a2e6]
link BankAgency3 to BankAgency4--><!--MD5=[0bf1ef6a496e515c7ce609fa914f3338]
link BankAgency4 to BankAgency5--><text fill="#888888" font-family="sans-serif" font-size="10" font-style="italic" lengthAdjust="spacingAndGlyphs" textLength="285" x="255" y="367.3535">Diagram generated using http://plantuml.sourceforge.net.</text><!--MD5=[fcfbfd3e4cb8942704049befa65c8ce0]
@startuml
'- - - - - - - - - - - - - - - - - - - - - - - - - - - - - - - - - - -
' UML concepts illustrated
' JMB 2020
'- - - - - - - - - - - - - - - - - - - - - - - - - - - - - - - - - - -

!include config.cfg
'skinparam classAttributeIconSize 0

class BankAgency1 {
	-String name
	-String loc
	-ArrayList<Account> accounts
	+String getOwner()
	+int getNbAccounts()
	+...()
	+void addAccount(Account newAccount)
}

class Account {
}

class BankAgency2 {
	-String name
	-String loc
	-ArrayList<Account> accounts
	+String getOwner()
	+int getNbAccounts()
	+...()
	+void addAccount() {... new Account(...)...}
}

class BankAgency3 {
	-String name
	-String loc
	+ArrayList<Account> accounts
	+String getOwner()
	+int getNbAccounts()
	+...()
	+void addAccount(Account newAccount)
}

class BankAgency4 {
	-String name
	-String loc
	+String getOwner()
	+...()
	+void addAccount(Account newAccount)
}

class BankAgency5 {
	-String name
	-String loc
	-Account Account
	+String getOwner()
	+...()
	+void addAccount(Account newAccount)
}



@enduml

@startuml


hide empty members
hide empty methods

footer <i>Diagram generated using http://plantuml.sourceforge.net.</i>

skinparam package {
	BackgroundColor empty
	BorderColor DarkSlateGray
	ArrowColor Black
	FontColor Black
	FontSize 12
	FontName Helvetica
}
skinparam roundcorner 10

skinparam class {
	BackgroundColor AliceBlue
	BorderColor DarkSlateGray
	ArrowColor Black
	FontColor Black
	FontSize 12
	FontName Helvetica
}
skinparam arrow {
    MessageAlign center
}

class BankAgency1 {
	-String name
	-String loc
	-ArrayList<Account> accounts
	+String getOwner()
	+int getNbAccounts()
	+...()
	+void addAccount(Account newAccount)
}

class Account {
}

class BankAgency2 {
	-String name
	-String loc
	-ArrayList<Account> accounts
	+String getOwner()
	+int getNbAccounts()
	+...()
	+void addAccount() {... new Account(...)...}
}

class BankAgency3 {
	-String name
	-String loc
	+ArrayList<Account> accounts
	+String getOwner()
	+int getNbAccounts()
	+...()
	+void addAccount(Account newAccount)
}

class BankAgency4 {
	-String name
	-String loc
	+String getOwner()
	+...()
	+void addAccount(Account newAccount)
}

class BankAgency5 {
	-String name
	-String loc
	-Account Account
	+String getOwner()
	+...()
	+void addAccount(Account newAccount)
}



@enduml

PlantUML version 1.2020.18(Wed Sep 30 21:40:44 CEST 2020)
(GPL source distribution)
Java Runtime: OpenJDK Runtime Environment
JVM: OpenJDK 64-Bit Server VM
Default Encoding: UTF-8
Language: fr
Country: FR
--></g></svg>