<?xml version="1.0" encoding="UTF-8" standalone="no"?><svg xmlns="http://www.w3.org/2000/svg" xmlns:xlink="http://www.w3.org/1999/xlink" contentScriptType="application/ecmascript" contentStyleType="text/css" height="196px" preserveAspectRatio="none" style="width:836px;height:196px;" version="1.1" viewBox="0 0 836 196" width="836px" zoomAndPan="magnify"><defs><filter height="300%" id="fnop82vop7kjq" width="300%" x="-1" y="-1"><feGaussianBlur result="blurOut" stdDeviation="2.0"/><feColorMatrix in="blurOut" result="blurOut2" type="matrix" values="0 0 0 0 0 0 0 0 0 0 0 0 0 0 0 0 0 0 .4 0"/><feOffset dx="4.0" dy="4.0" in="blurOut2" result="blurOut3"/><feBlend in="SourceGraphic" in2="blurOut3" mode="normal"/></filter></defs><g><!--MD5=[217537f29afe639f347895754667a4fd]
class p--><rect codeLine="23" fill="#F0F8FF" filter="url(#fnop82vop7kjq)" height="32" id="p" rx="5" ry="5" style="stroke: #2F4F4F; stroke-width: 1.5;" width="71" x="156.5" y="133"/><ellipse cx="171.5" cy="149" fill="#A9DCDF" rx="11" ry="11" style="stroke: #2F4F4F; stroke-width: 1.0;"/><path d="M171.6133,144.5981 L170.4595,149.6699 L172.7754,149.6699 Z M170.1191,142.3569 L173.1157,142.3569 L176.4609,154.75 L174.0122,154.75 L173.2485,151.687 L169.9697,151.687 L169.2227,154.75 L166.7739,154.75 Z "/><text fill="#000000" font-family="Helvetica" font-size="12" font-style="italic" lengthAdjust="spacingAndGlyphs" textLength="39" x="185.5" y="152.2402">Produit</text><!--MD5=[4db92337b7bc113041163d1b101d0c79]
class ProduitConcret--><rect codeLine="26" fill="#F0F8FF" filter="url(#fnop82vop7kjq)" height="32" id="ProduitConcret" rx="5" ry="5" style="stroke: #2F4F4F; stroke-width: 1.5;" width="114" x="7" y="133"/><ellipse cx="22" cy="149" fill="#ADD1B2" rx="11" ry="11" style="stroke: #2F4F4F; stroke-width: 1.0;"/><path d="M24.4731,155.1431 Q23.8921,155.4419 23.2529,155.5913 Q22.6138,155.7407 21.9082,155.7407 Q19.4014,155.7407 18.0815,154.0889 Q16.7617,152.437 16.7617,149.3159 Q16.7617,146.1865 18.0815,144.5347 Q19.4014,142.8828 21.9082,142.8828 Q22.6138,142.8828 23.2612,143.0322 Q23.9087,143.1816 24.4731,143.4805 L24.4731,146.2031 Q23.8423,145.6221 23.2488,145.3523 Q22.6553,145.0825 22.0244,145.0825 Q20.6797,145.0825 19.9949,146.1492 Q19.3101,147.2158 19.3101,149.3159 Q19.3101,151.4077 19.9949,152.4744 Q20.6797,153.541 22.0244,153.541 Q22.6553,153.541 23.2488,153.2712 Q23.8423,153.0015 24.4731,152.4204 Z "/><text fill="#000000" font-family="Helvetica" font-size="12" lengthAdjust="spacingAndGlyphs" textLength="82" x="36" y="152.2402">ProduitConcret</text><!--MD5=[e3471f280e59d1431a9a122c0f31e779]
class c--><rect codeLine="10" fill="#F0F8FF" filter="url(#fnop82vop7kjq)" height="65.9102" id="c" rx="5" ry="5" style="stroke: #2F4F4F; stroke-width: 1.5;" width="108" x="138" y="7"/><ellipse cx="165.6" cy="23" fill="#A9DCDF" rx="11" ry="11" style="stroke: #2F4F4F; stroke-width: 1.0;"/><path d="M165.7133,18.5981 L164.5595,23.6699 L166.8754,23.6699 Z M164.2191,16.3569 L167.2157,16.3569 L170.5609,28.75 L168.1122,28.75 L167.3485,25.687 L164.0697,25.687 L163.3227,28.75 L160.8739,28.75 Z "/><text fill="#000000" font-family="Helvetica" font-size="12" font-style="italic" lengthAdjust="spacingAndGlyphs" textLength="48" x="182.4" y="26.2402">Createur</text><line style="stroke: #2F4F4F; stroke-width: 1.5;" x1="139" x2="245" y1="39" y2="39"/><ellipse cx="149" cy="50" fill="#84BE84" rx="3" ry="3" style="stroke: #038048; stroke-width: 1.0;"/><text fill="#000000" font-family="sans-serif" font-size="11" font-style="italic" lengthAdjust="spacingAndGlyphs" textLength="53" x="158" y="53.6348">fabrique()</text><ellipse cx="149" cy="62.9551" fill="#84BE84" rx="3" ry="3" style="stroke: #038048; stroke-width: 1.0;"/><text fill="#000000" font-family="sans-serif" font-size="11" lengthAdjust="spacingAndGlyphs" textLength="82" x="158" y="66.5898">uneOperation()</text><path d="M281.5,32.5 L281.5,36 L246.13,40 L281.5,44 L281.5,47.8105 A5,5 0 0 0 286.5,52.8105 L425.5,52.8105 A5,5 0 0 0 430.5,47.8105 L430.5,37.5 L420.5,27.5 L286.5,27.5 A5,5 0 0 0 281.5,32.5 " fill="#FBFB77" filter="url(#fnop82vop7kjq)" style="stroke: #A80036; stroke-width: 1.0;"/><path d="M420.5,27.5 L420.5,35 A2.5,2.5 0 0 0 423,37.5 L430.5,37.5 L420.5,27.5 " fill="#FBFB77" style="stroke: #A80036; stroke-width: 1.0;"/><text fill="#000000" font-family="sans-serif" font-size="13" lengthAdjust="spacingAndGlyphs" textLength="128" x="287.5" y="45.0684">produit = fabrique();</text><!--MD5=[83012fed607bd02a287dd593cac4b98d]
class CreateurConcret--><rect codeLine="17" fill="#F0F8FF" filter="url(#fnop82vop7kjq)" height="52.9551" id="CreateurConcret" rx="5" ry="5" style="stroke: #2F4F4F; stroke-width: 1.5;" width="123" x="465.5" y="13.5"/><ellipse cx="480.5" cy="29.5" fill="#ADD1B2" rx="11" ry="11" style="stroke: #2F4F4F; stroke-width: 1.0;"/><path d="M482.9731,35.6431 Q482.3921,35.9419 481.7529,36.0913 Q481.1138,36.2407 480.4082,36.2407 Q477.9014,36.2407 476.5815,34.5889 Q475.2617,32.937 475.2617,29.8159 Q475.2617,26.6865 476.5815,25.0347 Q477.9014,23.3828 480.4082,23.3828 Q481.1138,23.3828 481.7612,23.5322 Q482.4087,23.6816 482.9731,23.9805 L482.9731,26.7031 Q482.3423,26.1221 481.7488,25.8523 Q481.1553,25.5825 480.5244,25.5825 Q479.1797,25.5825 478.4949,26.6492 Q477.8101,27.7158 477.8101,29.8159 Q477.8101,31.9077 478.4949,32.9744 Q479.1797,34.041 480.5244,34.041 Q481.1553,34.041 481.7488,33.7712 Q482.3423,33.5015 482.9731,32.9204 Z "/><text fill="#000000" font-family="Helvetica" font-size="12" lengthAdjust="spacingAndGlyphs" textLength="91" x="494.5" y="32.7402">CreateurConcret</text><line style="stroke: #2F4F4F; stroke-width: 1.5;" x1="466.5" x2="587.5" y1="45.5" y2="45.5"/><ellipse cx="476.5" cy="56.5" fill="#84BE84" rx="3" ry="3" style="stroke: #038048; stroke-width: 1.0;"/><text fill="#000000" font-family="sans-serif" font-size="11" lengthAdjust="spacingAndGlyphs" textLength="53" x="485.5" y="60.1348">fabrique()</text><path d="M624,32.5 L624,36 L588.63,40 L624,44 L624,47.8105 A5,5 0 0 0 629,52.8105 L817,52.8105 A5,5 0 0 0 822,47.8105 L822,37.5 L812,27.5 L629,27.5 A5,5 0 0 0 624,32.5 " fill="#FBFB77" filter="url(#fnop82vop7kjq)" style="stroke: #A80036; stroke-width: 1.0;"/><path d="M812,27.5 L812,35 A2.5,2.5 0 0 0 814.5,37.5 L822,37.5 L812,27.5 " fill="#FBFB77" style="stroke: #A80036; stroke-width: 1.0;"/><text fill="#000000" font-family="sans-serif" font-size="13" lengthAdjust="spacingAndGlyphs" textLength="177" x="630" y="45.0684">return new ProduitConcret();</text><!--MD5=[0d6d85696ed3172d039ea06242f93228]
link c to p--><text fill="#888888" font-family="sans-serif" font-size="10" font-style="italic" lengthAdjust="spacingAndGlyphs" textLength="285" x="265.5" y="187.668">Diagram generated using http://plantuml.sourceforge.net.</text><!--MD5=[05f9a8eaff3441c6161553efb0a8de53]
@startuml
'- - - - - - - - - - - - - - - - - - - - - - - - - - - - - - - - - - -
' UML concepts illustrated
' JMB 2020
'- - - - - - - - - - - - - - - - - - - - - - - - - - - - - - - - - - -

!include config.cfg
'skinparam classAttributeIconSize 0


abstract class c as "Createur" {
}
note right: produit = fabrique();

c : {abstract} +fabrique()
c : +uneOperation()

class CreateurConcret {
	+fabrique()
}
note right: return new ProduitConcret();

together {
abstract class p as "Produit"

'p <|- - ProduitConcret
class ProduitConcret
'c <|- - CreateurConcret

'p "+produit" <- c
'ProduitConcret <. CreateurConcret
}

c -[hidden]-> p
@enduml

@startuml


hide empty members
hide empty methods

footer <i>Diagram generated using http://plantuml.sourceforge.net.</i>

skinparam package {
	BackgroundColor empty
	BorderColor DarkSlateGray
	ArrowColor Black
	FontColor Black
	FontSize 12
	FontName Helvetica
}
skinparam roundcorner 10

skinparam class {
	BackgroundColor AliceBlue
	BorderColor DarkSlateGray
	ArrowColor Black
	FontColor Black
	FontSize 12
	FontName Helvetica
}
skinparam arrow {
    MessageAlign center
}


abstract class c as "Createur" {
}
note right: produit = fabrique();

c : {abstract} +fabrique()
c : +uneOperation()

class CreateurConcret {
	+fabrique()
}
note right: return new ProduitConcret();

together {
abstract class p as "Produit"

class ProduitConcret

}

c -[hidden]-> p
@enduml

PlantUML version 1.2020.18(Wed Sep 30 21:40:44 CEST 2020)
(GPL source distribution)
Java Runtime: OpenJDK Runtime Environment
JVM: OpenJDK 64-Bit Server VM
Default Encoding: UTF-8
Language: fr
Country: FR
--></g></svg>