<?xml version="1.0" encoding="UTF-8" standalone="no"?><svg xmlns="http://www.w3.org/2000/svg" xmlns:xlink="http://www.w3.org/1999/xlink" contentScriptType="application/ecmascript" contentStyleType="text/css" height="225px" preserveAspectRatio="none" style="width:534px;height:225px;" version="1.1" viewBox="0 0 534 225" width="534px" zoomAndPan="magnify"><defs><filter height="300%" id="f1uu1nelqkg79n" width="300%" x="-1" y="-1"><feGaussianBlur result="blurOut" stdDeviation="2.0"/><feColorMatrix in="blurOut" result="blurOut2" type="matrix" values="0 0 0 0 0 0 0 0 0 0 0 0 0 0 0 0 0 0 .4 0"/><feOffset dx="4.0" dy="4.0" in="blurOut2" result="blurOut3"/><feBlend in="SourceGraphic" in2="blurOut3" mode="normal"/></filter></defs><g><!--MD5=[1ee6293a9a1c2464ba82a9537a2e8031]
class Contexte--><rect codeLine="9" fill="#F0F8FF" filter="url(#f1uu1nelqkg79n)" height="73.9102" id="Contexte" rx="5" ry="5" style="stroke: #2F4F4F; stroke-width: 1.5;" width="211" x="7" y="7"/><ellipse cx="83.75" cy="23" fill="#ADD1B2" rx="11" ry="11" style="stroke: #2F4F4F; stroke-width: 1.0;"/><path d="M86.2231,29.1431 Q85.6421,29.4419 85.0029,29.5913 Q84.3638,29.7407 83.6582,29.7407 Q81.1514,29.7407 79.8315,28.0889 Q78.5117,26.437 78.5117,23.3159 Q78.5117,20.1865 79.8315,18.5347 Q81.1514,16.8828 83.6582,16.8828 Q84.3638,16.8828 85.0112,17.0322 Q85.6587,17.1816 86.2231,17.4805 L86.2231,20.2031 Q85.5923,19.6221 84.9988,19.3523 Q84.4053,19.0825 83.7744,19.0825 Q82.4297,19.0825 81.7449,20.1492 Q81.0601,21.2158 81.0601,23.3159 Q81.0601,25.4077 81.7449,26.4744 Q82.4297,27.541 83.7744,27.541 Q84.4053,27.541 84.9988,27.2712 Q85.5923,27.0015 86.2231,26.4204 Z "/><text fill="#000000" font-family="Helvetica" font-size="12" lengthAdjust="spacingAndGlyphs" textLength="49" x="104.25" y="26.2402">Contexte</text><line style="stroke: #2F4F4F; stroke-width: 1.5;" x1="8" x2="217" y1="39" y2="39"/><text fill="#000000" font-family="sans-serif" font-size="11" lengthAdjust="spacingAndGlyphs" textLength="100" x="13" y="53.6348">Strategie strategie;</text><line style="stroke: #2F4F4F; stroke-width: 1.5;" x1="8" x2="217" y1="59.9551" y2="59.9551"/><ellipse cx="18" cy="70.9551" fill="#84BE84" rx="3" ry="3" style="stroke: #038048; stroke-width: 1.0;"/><text fill="#000000" font-family="sans-serif" font-size="11" lengthAdjust="spacingAndGlyphs" textLength="185" x="27" y="74.5898">contexte() {strategie.algorithme();}</text><!--MD5=[be833e356924598dc06b499b6b69c03d]
class Strategie--><rect codeLine="14" fill="#F0F8FF" filter="url(#f1uu1nelqkg79n)" height="52.9551" id="Strategie" rx="5" ry="5" style="stroke: #2F4F4F; stroke-width: 1.5;" width="92" x="253.5" y="17.5"/><ellipse cx="273.45" cy="33.5" fill="#A9DCDF" rx="11" ry="11" style="stroke: #2F4F4F; stroke-width: 1.0;"/><path d="M273.5633,29.0981 L272.4095,34.1699 L274.7254,34.1699 Z M272.0691,26.8569 L275.0657,26.8569 L278.4109,39.25 L275.9622,39.25 L275.1985,36.187 L271.9197,36.187 L271.1727,39.25 L268.7239,39.25 Z "/><text fill="#000000" font-family="Helvetica" font-size="12" font-style="italic" lengthAdjust="spacingAndGlyphs" textLength="49" x="288.55" y="36.7402">Strategie</text><line style="stroke: #2F4F4F; stroke-width: 1.5;" x1="254.5" x2="344.5" y1="49.5" y2="49.5"/><ellipse cx="264.5" cy="60.5" fill="#84BE84" rx="3" ry="3" style="stroke: #038048; stroke-width: 1.0;"/><text fill="#000000" font-family="sans-serif" font-size="11" font-style="italic" lengthAdjust="spacingAndGlyphs" textLength="66" x="273.5" y="64.1348">algorithme()</text><!--MD5=[522fb38880a15951735745ddd8080346]
class StrategieConcreteA--><rect codeLine="18" fill="#F0F8FF" filter="url(#f1uu1nelqkg79n)" height="52.9551" id="StrategieConcreteA" rx="5" ry="5" style="stroke: #2F4F4F; stroke-width: 1.5;" width="139" x="381" y="17.5"/><ellipse cx="396" cy="33.5" fill="#ADD1B2" rx="11" ry="11" style="stroke: #2F4F4F; stroke-width: 1.0;"/><path d="M398.4731,39.6431 Q397.8921,39.9419 397.2529,40.0913 Q396.6138,40.2407 395.9082,40.2407 Q393.4014,40.2407 392.0815,38.5889 Q390.7617,36.937 390.7617,33.8159 Q390.7617,30.6865 392.0815,29.0347 Q393.4014,27.3828 395.9082,27.3828 Q396.6138,27.3828 397.2612,27.5322 Q397.9087,27.6816 398.4731,27.9805 L398.4731,30.7031 Q397.8423,30.1221 397.2488,29.8523 Q396.6553,29.5825 396.0244,29.5825 Q394.6797,29.5825 393.9949,30.6492 Q393.3101,31.7158 393.3101,33.8159 Q393.3101,35.9077 393.9949,36.9744 Q394.6797,38.041 396.0244,38.041 Q396.6553,38.041 397.2488,37.7712 Q397.8423,37.5015 398.4731,36.9204 Z "/><text fill="#000000" font-family="Helvetica" font-size="12" lengthAdjust="spacingAndGlyphs" textLength="107" x="410" y="36.7402">StrategieConcreteA</text><line style="stroke: #2F4F4F; stroke-width: 1.5;" x1="382" x2="519" y1="49.5" y2="49.5"/><ellipse cx="392" cy="60.5" fill="#84BE84" rx="3" ry="3" style="stroke: #038048; stroke-width: 1.0;"/><text fill="#000000" font-family="sans-serif" font-size="11" lengthAdjust="spacingAndGlyphs" textLength="66" x="401" y="64.1348">algorithme()</text><!--MD5=[14ff7a3a969d89d2de66445c4a346abd]
class StrategieConcreteB--><rect codeLine="22" fill="#F0F8FF" filter="url(#f1uu1nelqkg79n)" height="52.9551" id="StrategieConcreteB" rx="5" ry="5" style="stroke: #2F4F4F; stroke-width: 1.5;" width="139" x="43" y="141"/><ellipse cx="58" cy="157" fill="#ADD1B2" rx="11" ry="11" style="stroke: #2F4F4F; stroke-width: 1.0;"/><path d="M60.4731,163.1431 Q59.8921,163.4419 59.2529,163.5913 Q58.6138,163.7407 57.9082,163.7407 Q55.4014,163.7407 54.0815,162.0889 Q52.7617,160.437 52.7617,157.3159 Q52.7617,154.1865 54.0815,152.5347 Q55.4014,150.8828 57.9082,150.8828 Q58.6138,150.8828 59.2612,151.0322 Q59.9087,151.1816 60.4731,151.4805 L60.4731,154.2031 Q59.8423,153.6221 59.2488,153.3523 Q58.6553,153.0825 58.0244,153.0825 Q56.6797,153.0825 55.9949,154.1492 Q55.3101,155.2158 55.3101,157.3159 Q55.3101,159.4077 55.9949,160.4744 Q56.6797,161.541 58.0244,161.541 Q58.6553,161.541 59.2488,161.2712 Q59.8423,161.0015 60.4731,160.4204 Z "/><text fill="#000000" font-family="Helvetica" font-size="12" lengthAdjust="spacingAndGlyphs" textLength="107" x="72" y="160.2402">StrategieConcreteB</text><line style="stroke: #2F4F4F; stroke-width: 1.5;" x1="44" x2="181" y1="173" y2="173"/><ellipse cx="54" cy="184" fill="#84BE84" rx="3" ry="3" style="stroke: #038048; stroke-width: 1.0;"/><text fill="#000000" font-family="sans-serif" font-size="11" lengthAdjust="spacingAndGlyphs" textLength="66" x="63" y="187.6348">algorithme()</text><!--MD5=[378b18254a1b2429f435e93f5e5cc50c]
class C--><rect codeLine="26" fill="#F0F8FF" filter="url(#f1uu1nelqkg79n)" height="52.9551" id="C" rx="5" ry="5" style="stroke: #2F4F4F; stroke-width: 1.5;" width="92" x="217.5" y="141"/><ellipse cx="255.45" cy="157" fill="#ADD1B2" rx="11" ry="11" style="stroke: #2F4F4F; stroke-width: 1.0;"/><path d="M257.9231,163.1431 Q257.3421,163.4419 256.7029,163.5913 Q256.0638,163.7407 255.3582,163.7407 Q252.8514,163.7407 251.5315,162.0889 Q250.2117,160.437 250.2117,157.3159 Q250.2117,154.1865 251.5315,152.5347 Q252.8514,150.8828 255.3582,150.8828 Q256.0638,150.8828 256.7112,151.0322 Q257.3587,151.1816 257.9231,151.4805 L257.9231,154.2031 Q257.2923,153.6221 256.6988,153.3523 Q256.1053,153.0825 255.4744,153.0825 Q254.1297,153.0825 253.4449,154.1492 Q252.7601,155.2158 252.7601,157.3159 Q252.7601,159.4077 253.4449,160.4744 Q254.1297,161.541 255.4744,161.541 Q256.1053,161.541 256.6988,161.2712 Q257.2923,161.0015 257.9231,160.4204 Z "/><text fill="#000000" font-family="Helvetica" font-size="12" lengthAdjust="spacingAndGlyphs" textLength="9" x="274.55" y="160.2402">...</text><line style="stroke: #2F4F4F; stroke-width: 1.5;" x1="218.5" x2="308.5" y1="173" y2="173"/><ellipse cx="228.5" cy="184" fill="#84BE84" rx="3" ry="3" style="stroke: #038048; stroke-width: 1.0;"/><text fill="#000000" font-family="sans-serif" font-size="11" lengthAdjust="spacingAndGlyphs" textLength="66" x="237.5" y="187.6348">algorithme()</text><!--MD5=[efc907952cfea0573d70d22e3b024f95]
link Contexte to Strategie--><!--MD5=[a57acfeebafdee98f420236a13c69302]
link Strategie to StrategieConcreteA--><!--MD5=[97110ab8d76ce1439406ddbd46a7fa15]
link Contexte to StrategieConcreteB--><!--MD5=[a1d434403660241626116cc6a8d7de89]
link StrategieConcreteB to C--><text fill="#888888" font-family="sans-serif" font-size="10" font-style="italic" lengthAdjust="spacingAndGlyphs" textLength="285" x="118" y="216.623">Diagram generated using http://plantuml.sourceforge.net.</text><!--MD5=[10f0388f99c0abf6ef3dfd9c2e65af12]
@startuml
'- - - - - - - - - - - - - - - - - - - - - - - - - - - - - - - - - - -
' UML concepts illustrated
' JMB 2020
'- - - - - - - - - - - - - - - - - - - - - - - - - - - - - - - - - - -

!include config.cfg
'skinparam classAttributeIconSize 0

class Contexte {
Strategie strategie;
+contexte() {strategie.algorithme();}
}

abstract class Strategie {
{abstract} +algorithme()
}

class StrategieConcreteA {
+algorithme()
}

class StrategieConcreteB {
+algorithme()
}

class C as "..." {
+algorithme()
}

'Strategie <|- - StrategieConcreteA
'Strategie <|- - StrategieConcreteB
'Strategie <|- - C

'Contexte - -> "+strategie" Strategie

@enduml

@startuml


hide empty members
hide empty methods

footer <i>Diagram generated using http://plantuml.sourceforge.net.</i>

skinparam package {
	BackgroundColor empty
	BorderColor DarkSlateGray
	ArrowColor Black
	FontColor Black
	FontSize 12
	FontName Helvetica
}
skinparam roundcorner 10

skinparam class {
	BackgroundColor AliceBlue
	BorderColor DarkSlateGray
	ArrowColor Black
	FontColor Black
	FontSize 12
	FontName Helvetica
}
skinparam arrow {
    MessageAlign center
}

class Contexte {
Strategie strategie;
+contexte() {strategie.algorithme();}
}

abstract class Strategie {
{abstract} +algorithme()
}

class StrategieConcreteA {
+algorithme()
}

class StrategieConcreteB {
+algorithme()
}

class C as "..." {
+algorithme()
}



@enduml

PlantUML version 1.2020.18(Wed Sep 30 21:40:44 CEST 2020)
(GPL source distribution)
Java Runtime: OpenJDK Runtime Environment
JVM: OpenJDK 64-Bit Server VM
Default Encoding: UTF-8
Language: fr
Country: FR
--></g></svg>